<svg width="32" height="32" viewBox="0 0 32 32" fill="none" xmlns="http://www.w3.org/2000/svg">
<path d="M31.4532 5.72197C31.3116 4.39752 30.7205 3.16155 29.7784 2.21985C28.8363 1.27815 27.6 0.687541 26.2754 0.546355C19.4468 -0.182118 12.5601 -0.182118 5.73147 0.546355C4.40557 0.685979 3.16762 1.2759 2.22405 2.21774C1.28049 3.15958 0.688354 4.39641 0.546395 5.72197C-0.182132 12.5501 -0.182132 19.4363 0.546395 26.2644C0.685712 27.5908 1.27576 28.8293 2.21807 29.7732C3.16038 30.7171 4.39794 31.3093 5.7242 31.451C12.5526 32.183 19.4397 32.183 26.2681 31.451C27.5946 31.3112 28.833 30.7207 29.7766 29.7782C30.7202 28.8356 31.312 27.5979 31.4532 26.2717C32.1823 19.4412 32.1823 12.5525 31.4532 5.72197Z" fill="#457CFF"/>
<path fill-rule="evenodd" clip-rule="evenodd" d="M12.3256 12.874C11.3712 12.9743 10.3956 13.4594 9.39685 14.4463C9.05558 14.7835 8.50553 14.7803 8.16829 14.439C7.83105 14.0977 7.83431 13.5477 8.17559 13.2104C9.37501 12.0252 10.6984 11.298 12.144 11.1461C13.5895 10.9941 15.0352 11.4303 16.4549 12.3403C17.6369 13.098 18.6921 13.3696 19.6465 13.2693C20.6009 13.1689 21.5765 12.6839 22.5752 11.697C22.9165 11.3597 23.4665 11.363 23.8038 11.7043C24.141 12.0455 24.1378 12.5956 23.7965 12.9328C22.5971 14.1181 21.2737 14.8453 19.8281 14.9972C18.3825 15.1491 16.9369 14.713 15.5172 13.803C14.3351 13.0453 13.28 12.7737 12.3256 12.874Z" fill="#FDFDFD"/>
<path fill-rule="evenodd" clip-rule="evenodd" d="M12.3256 18.7783C11.3712 18.8786 10.3956 19.3637 9.39685 20.3506C9.05558 20.6878 8.50553 20.6846 8.16829 20.3433C7.83105 20.002 7.83431 19.452 8.17559 19.1147C9.37501 17.9295 10.6984 17.2023 12.144 17.0504C13.5895 16.8984 15.0352 17.3346 16.4549 18.2445C17.6369 19.0023 18.6921 19.2739 19.6465 19.1736C20.6009 19.0732 21.5765 18.5882 22.5752 17.6013C22.9165 17.264 23.4665 17.2673 23.8038 17.6086C24.141 17.9498 24.1378 18.4999 23.7965 18.8371C22.5971 20.0224 21.2737 20.7496 19.8281 20.9015C18.3825 21.0534 16.9369 20.6173 15.5172 19.7073C14.3351 18.9496 13.28 18.678 12.3256 18.7783Z" fill="#FDFDFD"/>
</svg>
